<?xml version="1.0" encoding="utf-8"?>
<!-- Generator: Adobe Illustrator 17.1.0, SVG Export Plug-In . SVG Version: 6.00 Build 0)  -->
<!DOCTYPE svg PUBLIC "-//W3C//DTD SVG 1.1//EN" "http://www.w3.org/Graphics/SVG/1.1/DTD/svg11.dtd">
<svg version="1.1" id="Layer_1" xmlns="http://www.w3.org/2000/svg" xmlns:xlink="http://www.w3.org/1999/xlink" x="0px" y="0px"
	 viewBox="0 0 1280 400" enable-background="new 0 0 1280 400" xml:space="preserve">
<path fill="none" stroke="#E7EBF2" stroke-linejoin="round" stroke-miterlimit="10" d="M684.8,100.7c0,0,16.4-3.8,22.2-11.1
	c0,0-1,160.2,6.7,194.4c0,0,5.2,27.3,15.5,41c0,0-43.8,23.9-38.7,51.2C691.2,376.1,695.3,182.6,684.8,100.7"/>
<path fill="none" stroke="#E7EBF2" stroke-linejoin="round" stroke-miterlimit="10" d="M586.1,129.2l112.6-37l2.9-1.4
	c2.8-3.2,3.8-6.1,4-10.3l-0.6-1.7c-0.6-8.6-8.6-11.4-8.6-11.4L586.6,43"/>
<path fill="none" stroke="#E7EBF2" stroke-linejoin="round" stroke-miterlimit="10" d="M697.1,79.8c0,2.6,0.2,4.7-4.7,4.7
	c-2.6,0-4.7-2.1-4.7-4.7s2.1-4.7,4.7-4.7C695,75.2,697.1,77.2,697.1,79.8z"/>
<path fill="none" stroke="#E7EBF2" stroke-linejoin="round" stroke-miterlimit="10" d="M707.9,75.9C694,9.4,682.3,53.2,682.3,53.2
	l-1.7,7.6l16.4,3.2c3.7,1.3,6.8,3.9,8.8,7.3L707.9,75.9z"/>
<path fill="none" stroke="#E7EBF2" stroke-linejoin="round" stroke-miterlimit="10" d="M567.8,137.5c-5.4,0.3-8-4.3-8-4.3V41.2
	c0,0-1.1-3.9,7.5-5.3L567.8,137.5z"/>
<path fill="none" stroke="#E7EBF2" stroke-linejoin="round" stroke-miterlimit="10" d="M567.3,35.8l0.2,101c0,0,7.7,0.6,17.2-4.5
	V39.6L567.3,35.8z"/>
<path fill="none" stroke="#E7EBF2" stroke-linejoin="round" stroke-miterlimit="10" d="M691.8,99.2c0,0,3.6,69,6.2,134.9
	c2.3,57.9,4.2,113.2-3.4,120.9"/>
<path fill="none" stroke="#E7EBF2" stroke-linejoin="round" stroke-miterlimit="10" d="M697.1,96.5c0,0,5.4,52.2,4.3,67.4"/>
<path fill="none" stroke="#E7EBF2" stroke-linejoin="round" stroke-miterlimit="10" d="M700.8,176.8c0,0,1.1,78.2,9.6,119.8"/>
<ellipse transform="matrix(-0.2743 -0.9616 0.9616 -0.2743 613.3546 1076.1888)" fill="none" stroke="#0C3978" stroke-linejoin="round" stroke-miterlimit="10" cx="712.7" cy="306.7" rx="6.3" ry="1.9"/>
<path fill="none" stroke="#0C3978" stroke-linejoin="round" stroke-miterlimit="10" d="M715.4,315.6c0,0,2.8,7.3,5,7.9"/>
<path fill="none" stroke="#E7EBF2" stroke-linejoin="round" stroke-miterlimit="10" d="M704,281.4c0,0,5.2,42.4,11.6,48.9"/>
<path fill="none" stroke="#E7EBF2" stroke-linejoin="round" stroke-miterlimit="10" d="M695.4,64.1c0,0,2-13.8-3-21.7"/>
<path fill="none" stroke="#E7EBF2" stroke-linejoin="round" stroke-miterlimit="10" d="M551.3,54v67.3c0,11.3,11.1,19.3,21.8,15.8
	l124-40.6c6.8-2.2,11.4-8.6,11.4-15.8v-0.3c0-7.8-5.5-14.6-13.2-16.3l-126-28.4C559.1,33.5,551.3,43.4,551.3,54z"/>
<path fill="none" stroke="#E7EBF2" stroke-linejoin="round" stroke-miterlimit="10" d="M584.8,41.7"/>
<path fill="none" stroke="#E7EBF2" stroke-linejoin="round" stroke-miterlimit="10" d="M566.6,35.5"/>
<line fill="none" stroke="#E7EBF2" stroke-linejoin="round" stroke-miterlimit="10" x1="552.2" y1="50.4" x2="556.7" y2="50.4"/>
<line fill="none" stroke="#E7EBF2" stroke-linejoin="round" stroke-miterlimit="10" x1="552.5" y1="54.8" x2="557.9" y2="54.8"/>
<line fill="none" stroke="#E7EBF2" stroke-linejoin="round" stroke-miterlimit="10" x1="551.8" y1="58.6" x2="556.6" y2="58.6"/>
<line fill="none" stroke="#E7EBF2" stroke-linejoin="round" stroke-miterlimit="10" x1="552.8" y1="62.8" x2="557.5" y2="62.8"/>
<line fill="none" stroke="#E7EBF2" stroke-linejoin="round" stroke-miterlimit="10" x1="551.6" y1="66.6" x2="556" y2="66.6"/>
<line fill="none" stroke="#E7EBF2" stroke-linejoin="round" stroke-miterlimit="10" x1="553.3" y1="71.4" x2="557.6" y2="71.4"/>
<line fill="none" stroke="#E7EBF2" stroke-linejoin="round" stroke-miterlimit="10" x1="552.4" y1="76" x2="556.9" y2="76"/>
<line fill="none" stroke="#E7EBF2" stroke-linejoin="round" stroke-miterlimit="10" x1="552.8" y1="80.3" x2="558.2" y2="80.3"/>
<line fill="none" stroke="#E7EBF2" stroke-linejoin="round" stroke-miterlimit="10" x1="552.1" y1="84.1" x2="556.8" y2="84.1"/>
<line fill="none" stroke="#E7EBF2" stroke-linejoin="round" stroke-miterlimit="10" x1="553" y1="88.3" x2="557.7" y2="88.3"/>
<line fill="none" stroke="#E7EBF2" stroke-linejoin="round" stroke-miterlimit="10" x1="551.8" y1="92" x2="556.2" y2="92"/>
<line fill="none" stroke="#E7EBF2" stroke-linejoin="round" stroke-miterlimit="10" x1="553.5" y1="96.9" x2="557.8" y2="96.9"/>
<line fill="none" stroke="#E7EBF2" stroke-linejoin="round" stroke-miterlimit="10" x1="552" y1="101" x2="556.6" y2="101"/>
<line fill="none" stroke="#E7EBF2" stroke-linejoin="round" stroke-miterlimit="10" x1="552.4" y1="105.3" x2="557.8" y2="105.3"/>
<line fill="none" stroke="#E7EBF2" stroke-linejoin="round" stroke-miterlimit="10" x1="551.7" y1="109.1" x2="556.4" y2="109.1"/>
<line fill="none" stroke="#E7EBF2" stroke-linejoin="round" stroke-miterlimit="10" x1="552.6" y1="113.3" x2="557.4" y2="113.3"/>
<line fill="none" stroke="#E7EBF2" stroke-linejoin="round" stroke-miterlimit="10" x1="551.4" y1="117.1" x2="555.8" y2="117.1"/>
<line fill="none" stroke="#E7EBF2" stroke-linejoin="round" stroke-miterlimit="10" x1="553.1" y1="121.9" x2="557.4" y2="121.9"/>
</svg>
